<svg width="500" height="500" viewBox="0 0 500 500" fill="none" xmlns="http://www.w3.org/2000/svg">
<g opacity="0.5">
<path d="M44.31 258.15C44.31 258.15 46.66 331.15 107.58 379.75C168.5 428.35 252.9 431.87 321.23 436.49C389.56 441.11 442 402.43 450 344C458 285.57 405.7 268.37 377.37 201.8C349.04 135.23 351.56 113.36 291.62 72.42C231.68 31.48 137.86 56.57 88.6999 126.71C39.5399 196.85 44.31 258.15 44.31 258.15Z" fill="#FDB43E"/>
<path opacity="0.7" d="M44.31 258.15C44.31 258.15 46.66 331.15 107.58 379.75C168.5 428.35 252.9 431.87 321.23 436.49C389.56 441.11 442 402.43 450 344C458 285.57 405.7 268.37 377.37 201.8C349.04 135.23 351.56 113.36 291.62 72.42C231.68 31.48 137.86 56.57 88.6999 126.71C39.5399 196.85 44.31 258.15 44.31 258.15Z" fill="white"/>
<path d="M341.49 407.21C381.365 407.21 413.69 397.62 413.69 385.79C413.69 373.96 381.365 364.37 341.49 364.37C301.615 364.37 269.29 373.96 269.29 385.79C269.29 397.62 301.615 407.21 341.49 407.21Z" fill="#263238" stroke="#263238" stroke-width="1.193" stroke-linecap="round" stroke-linejoin="round"/>
<path d="M341.49 374.22C375.64 374.22 404.24 381.22 411.75 390.71C412.936 389.337 413.62 387.603 413.69 385.79C413.69 373.95 381.36 364.36 341.49 364.36C301.62 364.36 269.28 373.95 269.28 385.79C269.35 387.603 270.034 389.337 271.22 390.71C278.73 381.26 307.33 374.22 341.49 374.22Z" fill="white" stroke="#263238" stroke-width="1.193" stroke-linecap="round" stroke-linejoin="round"/>
<path d="M331.63 404.52C307.51 403.43 289.31 398.52 289.31 392.52C289.323 391.865 289.528 391.229 289.9 390.69" stroke="white" stroke-width="1.193" stroke-linecap="round" stroke-linejoin="round"/>
<path d="M387.6 386.68C391.73 388.43 394.09 390.43 394.09 392.56C394.09 399.29 370.63 404.74 341.7 404.74H340.45" stroke="white" stroke-width="1.193" stroke-linecap="round" stroke-linejoin="round"/>
<path d="M296.36 386.45C305.43 382.82 322.36 380.37 341.7 380.37C352.705 380.285 363.696 381.185 374.54 383.06" stroke="white" stroke-width="1.193" stroke-linecap="round" stroke-linejoin="round"/>
<path d="M330.94 396.74C324.83 395.89 320.74 394.34 320.74 392.56C320.74 389.87 330.13 387.69 341.74 387.69C353.35 387.69 362.69 389.87 362.69 392.56C362.69 394.87 355.79 396.8 346.53 397.3" stroke="white" stroke-width="1.193" stroke-linecap="round" stroke-linejoin="round"/>
<path d="M51.52 299.68C83.01 290.73 149.27 273.07 185.84 271.74C235 270 318 305.68 369.82 311.93C421.64 318.18 456.46 316.4 456.46 316.4" stroke="#263238" stroke-width="1.193" stroke-linecap="round" stroke-linejoin="round"/>
<path d="M34 304.79C34 304.79 36.72 303.96 41.49 302.57" stroke="#263238" stroke-width="1.193" stroke-linecap="round" stroke-linejoin="round"/>
<path d="M442.47 249.12C424.318 245.133 405.748 243.376 387.17 243.89C348.75 245.18 307.17 250.26 255.76 256.89C204.35 263.52 131.14 226.89 81.36 240.48C31.58 254.07 35.36 258.16 35.36 258.16" stroke="#263238" stroke-width="1.193" stroke-linecap="round" stroke-linejoin="round"/>
<path d="M456.63 252.8C456.63 252.8 454.69 252.16 451.18 251.23" stroke="#263238" stroke-width="1.193" stroke-linecap="round" stroke-linejoin="round"/>
<path d="M364.45 158.35C363.897 156.102 362.606 154.105 360.784 152.678C358.962 151.25 356.715 150.474 354.4 150.474C352.085 150.474 349.838 151.25 348.016 152.678C346.194 154.105 344.903 156.102 344.35 158.35H364.45Z" stroke="#263238" stroke-width="1.193" stroke-linecap="round" stroke-linejoin="round"/>
<path d="M466 158.35C465.393 155.789 464.011 153.476 462.042 151.728C460.074 149.98 457.615 148.881 455 148.58C455.822 144.236 455.674 139.764 454.567 135.484C453.459 131.203 451.419 127.221 448.593 123.821C445.766 120.421 442.223 117.688 438.217 115.818C434.211 113.947 429.841 112.985 425.42 113C418.36 113 411.525 115.484 406.112 120.016C400.698 124.548 397.052 130.84 395.81 137.79C392.971 135.57 389.565 134.193 385.981 133.816C382.396 133.439 378.778 134.077 375.54 135.658C372.301 137.239 369.572 139.698 367.664 142.756C365.756 145.813 364.746 149.346 364.75 152.95C364.756 154.785 365.022 156.61 365.54 158.37L466 158.35Z" stroke="#263238" stroke-width="1.193" stroke-linecap="round" stroke-linejoin="round"/>
<path d="M185.57 182.49C185.295 181.343 184.641 180.323 183.715 179.592C182.789 178.862 181.644 178.465 180.465 178.465C179.286 178.465 178.141 178.862 177.215 179.592C176.289 180.323 175.635 181.343 175.36 182.49H185.57Z" stroke="#263238" stroke-width="1.193" stroke-linecap="round" stroke-linejoin="round"/>
<path d="M237.12 182.49C236.816 181.183 236.116 180.001 235.116 179.106C234.115 178.211 232.863 177.647 231.53 177.49C232.011 175.473 232.076 173.378 231.721 171.335C231.367 169.292 230.599 167.342 229.466 165.605C228.333 163.868 226.858 162.38 225.131 161.231C223.404 160.083 221.461 159.299 219.421 158.926C217.38 158.553 215.286 158.6 213.264 159.064C211.243 159.527 209.337 160.398 207.663 161.622C205.988 162.846 204.581 164.399 203.527 166.185C202.473 167.971 201.793 169.953 201.53 172.01C200.089 170.884 198.36 170.185 196.541 169.994C194.722 169.802 192.886 170.126 191.242 170.928C189.598 171.729 188.213 172.977 187.243 174.528C186.274 176.079 185.76 177.871 185.76 179.7C185.765 180.634 185.899 181.563 186.16 182.46L237.12 182.49Z" stroke="#263238" stroke-width="1.193" stroke-linecap="round" stroke-linejoin="round"/>
<path d="M231.93 198.63C231.758 197.906 231.346 197.261 230.762 196.799C230.177 196.338 229.455 196.087 228.71 196.087C227.965 196.087 227.243 196.338 226.658 196.799C226.074 197.261 225.662 197.906 225.49 198.63H231.93Z" stroke="#263238" stroke-width="1.193" stroke-linecap="round" stroke-linejoin="round"/>
<path d="M264.47 198.63C264.276 197.808 263.832 197.067 263.2 196.506C262.569 195.946 261.779 195.595 260.94 195.5C261.049 194.916 261.102 194.324 261.1 193.73C261.07 191.345 260.157 189.055 258.537 187.304C256.918 185.553 254.706 184.465 252.33 184.25C249.955 184.034 247.584 184.708 245.676 186.139C243.767 187.571 242.458 189.659 242 192C241.09 191.29 239.999 190.85 238.851 190.729C237.703 190.609 236.544 190.814 235.507 191.321C234.469 191.828 233.595 192.616 232.984 193.595C232.373 194.574 232.049 195.706 232.05 196.86C232.051 197.449 232.135 198.035 232.3 198.6L264.47 198.63Z" stroke="#263238" stroke-width="1.193" stroke-linecap="round" stroke-linejoin="round"/>
<path d="M162.65 313.83C162.298 313.835 161.952 313.741 161.65 313.56C161.213 313.29 160.896 312.862 160.765 312.365C160.635 311.868 160.701 311.34 160.95 310.89C161.44 310.03 285.08 175.2 341.65 125.76C341.847 125.601 342.097 125.524 342.35 125.542C342.602 125.561 342.838 125.674 343.01 125.86C343.174 126.059 343.256 126.313 343.237 126.57C343.218 126.827 343.101 127.067 342.91 127.24C286.62 176.47 164.81 312 164.32 312.85C164.153 313.147 163.911 313.394 163.617 313.566C163.324 313.738 162.99 313.829 162.65 313.83Z" fill="#263238"/>
<path d="M169.48 287C169.48 287 175.61 280.46 179.29 280.46C182.97 280.46 189.92 286.59 189.51 289.86C189.1 293.13 182.97 290.27 182.97 290.27C182.97 290.27 177.24 298.04 171.52 296.81C165.8 295.58 169.48 287 169.48 287Z" fill="#FDB43E" stroke="#263238" stroke-width="1.193" stroke-linecap="round" stroke-linejoin="round"/>
<path d="M183 290.25C183 290.25 186.75 292.85 187.08 294.68C187.41 296.51 182.92 301.68 177.93 302.84C172.94 304 170.27 301.17 171.77 298.51C173.27 295.85 179.22 290.49 183 290.25Z" fill="#FDB43E" stroke="#263238" stroke-width="1.193" stroke-linecap="round" stroke-linejoin="round"/>
<path d="M337 266.56V131.27C337 131.27 334.27 141.06 334.27 141.77" stroke="#263238" stroke-width="1.193" stroke-linecap="round" stroke-linejoin="round"/>
<path d="M393.42 273.69H289.68V356.81H393.42V273.69Z" fill="#FDB43E" stroke="#263238" stroke-width="1.193" stroke-linecap="round" stroke-linejoin="round"/>
<path d="M338.48 273.34V268.58C338.48 268.264 338.355 267.962 338.131 267.739C337.908 267.515 337.606 267.39 337.29 267.39C336.974 267.39 336.672 267.515 336.449 267.739C336.225 267.962 336.1 268.264 336.1 268.58V273.34H338.48Z" fill="#263238"/>
<path d="M348 261.76V262C347.903 261.818 347.759 261.665 347.583 261.558C347.407 261.451 347.206 261.393 347 261.39C346.682 261.39 346.376 261.516 346.151 261.741C345.926 261.967 345.8 262.272 345.8 262.59V275.3C345.8 276.272 345.415 277.204 344.729 277.892C344.042 278.58 343.112 278.967 342.14 278.97C341.637 278.971 341.139 278.865 340.68 278.66C340.415 279.055 340.299 279.532 340.354 280.005C340.409 280.478 340.631 280.916 340.98 281.24C341.362 281.312 341.751 281.349 342.14 281.35C342.934 281.35 343.721 281.194 344.455 280.889C345.189 280.585 345.856 280.14 346.418 279.578C346.98 279.016 347.425 278.349 347.729 277.615C348.033 276.881 348.19 276.094 348.19 275.3V269.41H350.93L348 261.76Z" fill="#263238"/>
<path d="M337.1 130C337.1 130 339.22 122.47 337.34 123.17C335.46 123.87 337.1 130 337.1 130Z" stroke="#263238" stroke-width="1.193" stroke-linecap="round" stroke-linejoin="round"/>
<path d="M337.1 130C337.1 130 329.1 127.17 329.81 129.76C330.52 132.35 337.1 130 337.1 130Z" stroke="#263238" stroke-width="1.193" stroke-linecap="round" stroke-linejoin="round"/>
<path d="M164.59 195.63C164.59 195.63 154.72 190.1 135.36 192.87C116 195.64 112.31 211.6 115.47 228.19C118.63 244.78 136.94 258.83 139.71 257.65C142.48 256.47 138.92 219.33 145.24 212.22C151.56 205.11 172.1 206.3 173.24 200.77C174.38 195.24 164.59 195.63 164.59 195.63Z" fill="#263238" stroke="#263238" stroke-width="1.193" stroke-linecap="round" stroke-linejoin="round"/>
<path d="M130.18 205.48L132.18 218.55C132.18 218.55 119.78 252.4 121.79 257.1C123.8 261.8 142.56 263.46 142.56 263.46C142.56 263.46 173.06 267.15 182.11 263.46C191.16 259.77 186.47 249.05 185.46 246.04C184.45 243.03 178.76 218.89 178.76 218.89C178.76 218.89 180.76 213.19 180.76 210.18C180.76 207.17 180.42 198.78 179.08 196.77C177.74 194.76 154.28 192.41 143.89 194.09C133.5 195.77 128.84 198.45 130.18 205.48Z" fill="#757575" stroke="#263238" stroke-width="1.193" stroke-linecap="round" stroke-linejoin="round"/>
<path d="M135.55 220.57C135.55 220.57 135.21 249.72 136.89 255.42C138.57 261.12 145.27 267.82 159.34 266.14C173.41 264.46 174.76 251.06 174.76 251.06L173.76 219.9L135.55 220.57Z" fill="white" stroke="#263238" stroke-width="1.193" stroke-linecap="round" stroke-linejoin="round"/>
<path d="M159.68 241.51C159.682 242.009 159.536 242.497 159.26 242.913C158.984 243.328 158.592 243.653 158.131 243.845C157.671 244.038 157.164 244.089 156.675 243.993C156.185 243.897 155.735 243.657 155.382 243.305C155.028 242.953 154.787 242.504 154.689 242.015C154.591 241.526 154.64 241.019 154.831 240.558C155.021 240.097 155.344 239.703 155.759 239.425C156.174 239.148 156.661 239 157.16 239C157.49 238.999 157.818 239.063 158.124 239.188C158.429 239.314 158.707 239.498 158.941 239.732C159.175 239.965 159.361 240.242 159.488 240.547C159.615 240.852 159.68 241.179 159.68 241.51Z" stroke="#263238" stroke-width="1.193" stroke-miterlimit="10"/>
<path d="M159.34 252.07C159.34 252.403 159.241 252.728 159.056 253.004C158.871 253.281 158.608 253.496 158.301 253.623C157.993 253.75 157.655 253.783 157.329 253.717C157.002 253.651 156.703 253.49 156.468 253.254C156.234 253.018 156.075 252.718 156.011 252.392C155.947 252.065 155.982 251.727 156.111 251.42C156.239 251.113 156.456 250.852 156.734 250.668C157.011 250.485 157.337 250.388 157.67 250.39C157.89 250.39 158.108 250.434 158.311 250.518C158.515 250.603 158.699 250.727 158.854 250.883C159.01 251.039 159.132 251.224 159.216 251.428C159.299 251.632 159.341 251.85 159.34 252.07V252.07Z" fill="#263238"/>
<path d="M149.22 230.76C150.29 231.92 150.66 233.31 150.06 233.88C149.46 234.45 148.06 233.97 147.01 232.82C145.96 231.67 145.56 230.28 146.17 229.71C146.78 229.14 148.15 229.61 149.22 230.76Z" fill="#263238"/>
<path d="M162.83 230.76C161.76 231.92 161.38 233.31 161.99 233.88C162.6 234.45 163.99 233.97 164.99 232.82C165.99 231.67 166.44 230.28 165.83 229.71C165.22 229.14 163.9 229.61 162.83 230.76Z" fill="#263238"/>
<path d="M142.06 226.81C142.811 225.702 143.89 224.857 145.145 224.395C146.401 223.932 147.77 223.874 149.06 224.23" stroke="#263238" stroke-width="1.193" stroke-linecap="round" stroke-linejoin="round"/>
<path d="M162.3 224.6C162.3 224.6 167.08 223.13 168.56 227.18" stroke="#263238" stroke-width="1.193" stroke-linecap="round" stroke-linejoin="round"/>
<path d="M178.44 411.62C178.44 411.62 183.71 408.46 186.63 407.22C186.903 407.094 187.184 406.984 187.47 406.89C190.05 406.03 197.36 406.46 204.23 402.16C211.1 397.86 207.67 392.7 202.51 391.41C197.35 390.12 191.77 388.41 191.77 388.41L190.48 368.2C190.48 368.2 175 372.5 169.84 374.65C164.68 376.8 167.69 407.32 168.12 409.9C168.55 412.48 168.55 414.2 178.44 411.62Z" fill="#263238" stroke="#263238" stroke-width="1.193" stroke-linecap="round" stroke-linejoin="round"/>
<path d="M195.64 402.16C186.64 403.88 186.64 405.6 176.72 407.32C173.814 407.9 170.851 408.142 167.89 408.04C167.99 408.96 168.07 409.61 168.12 409.9C168.55 412.48 168.55 414.2 178.44 411.62C178.44 411.62 183.71 408.46 186.63 407.22C186.903 407.094 187.184 406.984 187.47 406.89C190.05 406.03 197.36 406.46 204.23 402.16C206.44 400.79 207.57 399.32 207.94 397.92C204.035 399.847 199.902 401.272 195.64 402.16Z" fill="white" stroke="#263238" stroke-width="1.193" stroke-linecap="round" stroke-linejoin="round"/>
<path d="M199.22 391.15C199.22 391.15 198.89 414.61 198.22 419.63C197.55 424.65 198.55 431.03 206.22 431.03C213.89 431.03 229.01 426.03 234.37 425.03C239.73 424.03 248.45 421.67 252.13 413.3C255.81 404.93 233.37 405.92 233.37 405.92L234.71 388.83C234.71 388.83 211.62 393.49 199.22 391.15Z" fill="#263238" stroke="#263238" stroke-width="1.193" stroke-linecap="round" stroke-linejoin="round"/>
<path d="M252.17 413.27C252.581 412.457 252.68 411.522 252.45 410.64C250.153 413.759 247.038 416.181 243.45 417.64C235.45 420.99 220.32 424.64 208.93 426.36C203.72 427.12 200.42 426.27 198.35 425.13C199.09 428.38 201.26 431.05 206.25 431.05C213.96 431.05 229.04 426.05 234.4 425.05C239.76 424.05 248.49 421.64 252.17 413.27Z" fill="white" stroke="#263238" stroke-width="1.193" stroke-linecap="round" stroke-linejoin="round"/>
<path d="M233.41 405.89C233.41 405.89 235.08 411.59 230.41 415.28" stroke="white" stroke-width="1.193" stroke-linecap="round" stroke-linejoin="round"/>
<path d="M196.88 378.75C196.88 378.75 196.36 388.94 196.93 390.98C199.07 398.72 199.75 396.91 215.84 396.57C231.93 396.23 238.43 389.81 240.11 385.79C241.79 381.77 240.11 373.05 239.44 370.03C238.77 367.01 233.44 366.03 231.39 366.35C229.34 366.67 197.88 375.4 196.88 378.75Z" fill="#757575" stroke="#263238" stroke-width="1.193" stroke-linecap="round" stroke-linejoin="round"/>
<path d="M86.2799 404.22V426.74C86.2874 427.621 86.5353 428.484 86.997 429.235C87.4588 429.985 88.1167 430.596 88.8999 431L125.1 449.69C125.744 450.025 126.456 450.21 127.181 450.23C127.907 450.251 128.628 450.107 129.29 449.81L182.62 429.48C183.471 429.099 184.193 428.479 184.701 427.697C185.208 426.915 185.479 426.002 185.48 425.07V397.85L124.48 416.28L86.2799 404.22Z" fill="#FDB43E"/>
<path opacity="0.18" d="M127.17 415.47L124.49 416.28L86.2799 404.22V426.74C86.2874 427.621 86.5353 428.484 86.997 429.235C87.4588 429.985 88.1167 430.596 88.8999 431L125.1 449.69C125.74 450.025 126.448 450.209 127.17 450.23V415.47Z" fill="black"/>
<path d="M86.2799 404.22V426.74C86.2874 427.621 86.5353 428.484 86.997 429.235C87.4588 429.985 88.1167 430.596 88.8999 431L125.1 449.69C125.744 450.025 126.456 450.21 127.181 450.23C127.907 450.251 128.628 450.107 129.29 449.81L182.62 429.48C183.471 429.099 184.193 428.479 184.701 427.697C185.208 426.915 185.479 426.002 185.48 425.07V397.85L124.48 416.28L86.2799 404.22Z" stroke="#263238" stroke-width="1.193" stroke-linecap="round" stroke-linejoin="round"/>
<path d="M142 366.2L83.4999 385C83.0427 385.147 82.6441 385.435 82.3618 385.823C82.0795 386.212 81.9283 386.68 81.9299 387.16V403.84C81.9388 404.26 82.0641 404.669 82.2918 405.023C82.5196 405.376 82.8409 405.659 83.2199 405.84L124 425.25C124.275 425.381 124.573 425.456 124.877 425.47C125.181 425.484 125.485 425.436 125.77 425.33L187 402.42C187.433 402.259 187.807 401.97 188.071 401.591C188.336 401.212 188.478 400.762 188.48 400.3L188.59 384.65C188.587 384.132 188.408 383.631 188.083 383.227C187.758 382.824 187.305 382.543 186.8 382.43L143.16 366.14C142.774 366.063 142.376 366.084 142 366.2V366.2Z" fill="white"/>
<path d="M123.93 425.24C124.205 425.371 124.503 425.446 124.807 425.46C125.111 425.473 125.415 425.426 125.7 425.32L187 402.42C187.433 402.259 187.807 401.97 188.071 401.591C188.336 401.212 188.478 400.762 188.48 400.3L188.59 384.65C188.591 384.117 188.4 383.602 188.05 383.2L124.8 406.56L123.93 425.24Z" fill="#FDB43E"/>
<path opacity="0.5" d="M123.93 425.24C124.205 425.371 124.503 425.446 124.807 425.46C125.111 425.473 125.415 425.426 125.7 425.32L187 402.42C187.433 402.259 187.807 401.97 188.071 401.591C188.336 401.212 188.478 400.762 188.48 400.3L188.59 384.65C188.591 384.117 188.4 383.602 188.05 383.2L124.8 406.56L123.93 425.24Z" fill="white"/>
<path d="M81.9299 387.11V403.79C81.9388 404.21 82.0641 404.619 82.2918 404.973C82.5196 405.326 82.8409 405.609 83.2199 405.79L124 425.25C124.272 425.381 124.568 425.456 124.87 425.47V406.56L81.9999 386.72C81.9612 386.847 81.9377 386.978 81.9299 387.11V387.11Z" fill="#FDB43E"/>
<path d="M142 366.2L83.4999 385C83.0427 385.147 82.6441 385.435 82.3618 385.823C82.0795 386.212 81.9283 386.68 81.9299 387.16V403.84C81.9388 404.26 82.0641 404.669 82.2918 405.023C82.5196 405.376 82.8409 405.659 83.2199 405.84L124 425.25C124.275 425.381 124.573 425.456 124.877 425.47C125.181 425.484 125.485 425.436 125.77 425.33L187 402.42C187.433 402.259 187.807 401.97 188.071 401.591C188.336 401.212 188.478 400.762 188.48 400.3L188.59 384.65C188.587 384.132 188.408 383.631 188.083 383.227C187.758 382.824 187.305 382.543 186.8 382.43L143.16 366.14C142.774 366.063 142.376 366.084 142 366.2V366.2Z" stroke="#263238" stroke-width="1.193" stroke-linecap="round" stroke-linejoin="round"/>
<path d="M222.35 335.52C222.35 335.52 230.05 339.2 234.08 346.58C238.11 353.96 235.08 368.02 232.73 372.38C230.38 376.74 214.64 378.75 209.28 378.75C203.92 378.75 202.91 378.08 202.91 378.08C202.91 378.08 185.82 381.43 175.09 383.44C164.36 385.45 167.09 360.32 170.4 348.92C173.71 337.52 192.52 331.83 200.23 331.83C207.94 331.83 222.35 335.52 222.35 335.52Z" fill="#263238" stroke="#263238" stroke-width="1.193" stroke-linecap="round" stroke-linejoin="round"/>
<path d="M202.91 378.08C202.91 378.08 217.32 373.08 223.35 360.32" stroke="white" stroke-width="1.193" stroke-linecap="round" stroke-linejoin="round"/>
<path d="M216.65 370.7C221.294 368.753 225.507 365.909 229.05 362.33" stroke="white" stroke-width="1.193" stroke-linecap="round" stroke-linejoin="round"/>
<path d="M182.8 346.58C182.8 346.58 186.8 367.69 184.8 376.4C182.8 385.11 171.06 386.46 168.38 385.45C165.7 384.44 167.04 363.67 167.04 353.28C167.04 342.89 177.44 343.56 182.8 346.58Z" fill="#757575" stroke="#263238" stroke-width="1.193" stroke-linecap="round" stroke-linejoin="round"/>
<path d="M97.34 290.27C97.34 290.27 95 304 96.67 310.72C97.5208 314.463 99.1158 317.996 101.36 321.11C101.36 321.11 92.98 333.51 94.66 343.89C96.34 354.27 100.66 355.62 100.66 355.62C100.66 355.62 96.98 374.73 103.66 381.43C110.34 388.13 125.11 395.5 141.53 392.49C157.95 389.48 169.01 388.8 172.36 383.1C175.71 377.4 173.7 352.27 173.7 352.27C173.7 352.27 173.03 324.46 172.36 307.36C171.69 290.26 169.36 276.53 161.3 269.83C153.24 263.13 117.73 273.52 107.01 280.55C96.29 287.58 97.34 290.27 97.34 290.27Z" fill="#FDB43E"/>
<path opacity="0.3" d="M99.73 290.27C99.73 290.27 97.38 304.01 99.06 310.72C99.9058 314.464 101.501 317.999 103.75 321.11C103.75 321.11 95.37 333.51 97.05 343.89C98.73 354.27 103.05 355.62 103.05 355.62C103.05 355.62 99.36 374.73 106.05 381.43C112.74 388.13 127.54 395.5 144 392.49C160.46 389.48 171.49 388.8 174.84 383.1C178.19 377.4 176.18 352.27 176.18 352.27C176.18 352.27 175.51 324.46 174.84 307.36C174.17 290.26 171.84 276.53 163.78 269.83C155.72 263.13 120.21 273.52 109.49 280.55C98.77 287.58 99.73 290.27 99.73 290.27Z" fill="black"/>
<path d="M97.34 290.27C97.34 290.27 95 304 96.67 310.72C97.5208 314.463 99.1158 317.996 101.36 321.11C101.36 321.11 92.98 333.51 94.66 343.89C96.34 354.27 100.66 355.62 100.66 355.62C100.66 355.62 96.98 374.73 103.66 381.43C110.34 388.13 125.11 395.5 141.53 392.49C157.95 389.48 169.01 388.8 172.36 383.1C175.71 377.4 173.7 352.27 173.7 352.27C173.7 352.27 173.03 324.46 172.36 307.36C171.69 290.26 169.36 276.53 161.3 269.83C153.24 263.13 117.73 273.52 107.01 280.55C96.29 287.58 97.34 290.27 97.34 290.27Z" stroke="#263238" stroke-width="1.193" stroke-linecap="round" stroke-linejoin="round"/>
<path d="M101.36 321.11C106.548 324.649 112.484 326.942 118.704 327.809C124.925 328.676 131.261 328.095 137.22 326.11" stroke="#263238" stroke-width="1.193" stroke-linecap="round" stroke-linejoin="round"/>
<path d="M100.69 355.62C100.69 355.62 117.78 372.38 145.94 356.29" stroke="#263238" stroke-width="1.193" stroke-linecap="round" stroke-linejoin="round"/>
<path d="M167.38 273.85C167.38 273.85 161.02 264.13 152.3 258.77C143.58 253.41 121.14 249.39 112.09 247.71C103.04 246.03 93.32 246.71 90.64 256.71C87.96 266.71 88.29 283.52 90.97 290.89C93.65 298.26 104.71 302.62 113.43 297.6C122.15 292.58 146.27 273.13 154.65 272.13C163.03 271.13 166.71 277.54 167.38 273.85Z" fill="#757575"/>
<path opacity="0.3" d="M148.79 272C153.9 269.87 141.12 273.7 140.27 272.42C139.42 271.14 149.21 264.76 151.34 263.91C153.47 263.06 138.99 266.04 139.42 263.91C139.85 261.78 153.47 261.35 144.1 259.22C134.73 257.09 104.1 251.55 98.1 249.42C97.641 249.271 97.2064 249.055 96.81 248.78C95.2584 249.58 93.9016 250.712 92.8355 252.094C91.7693 253.476 91.0198 255.076 90.64 256.78C87.96 266.83 88.29 283.59 90.97 290.96C93.31 297.38 101.97 301.51 109.97 299.16C113.66 296.16 117.07 292.22 122.84 288.59C134.31 281.33 143.68 274.09 148.79 272Z" fill="black"/>
<path d="M167.38 273.85C167.38 273.85 161.02 264.13 152.3 258.77C143.58 253.41 121.14 249.39 112.09 247.71C103.04 246.03 93.32 246.71 90.64 256.71C87.96 266.71 88.29 283.52 90.97 290.89C93.65 298.26 104.71 302.62 113.43 297.6C122.15 292.58 146.27 273.13 154.65 272.13C163.03 271.13 166.71 277.54 167.38 273.85Z" stroke="#263238" stroke-width="1.193" stroke-linecap="round" stroke-linejoin="round"/>
<path d="M203.58 319.43C203.58 319.43 211.29 320.43 216.31 322.43C221.33 324.43 224.69 336.84 222.68 338.51C220.67 340.18 216.68 338.18 216.68 338.18C213.528 339.289 210.271 340.073 206.96 340.52C202.91 340.88 198.55 321.78 203.58 319.43Z" fill="#FDB43E" stroke="#263238" stroke-width="1.193" stroke-linecap="round" stroke-linejoin="round"/>
<path d="M178.11 318.42C178.11 318.42 179.45 318.42 186.82 315.07C194.19 311.72 200.23 311.72 204.92 319.07C209.61 326.42 211.62 335.5 208.92 340.86C206.22 346.22 196.19 349.91 190.82 349.91C185.45 349.91 184.82 342.91 184.82 342.91C184.82 342.91 184.15 331.85 180.82 327.83C177.49 323.81 176.77 319.43 178.11 318.42Z" fill="#757575" stroke="#263238" stroke-width="1.193" stroke-linecap="round" stroke-linejoin="round"/>
<path d="M153.31 273.85C160.68 271.17 170.07 272.85 173.42 282.23C176.77 291.61 179.78 319.09 179.78 319.09C179.78 319.09 188.16 320.09 191.51 323.79C194.86 327.49 196.51 336.86 195.87 341.55C195.23 346.24 183.47 354.95 170.07 355.29C156.67 355.63 146.94 349.29 142.25 332.16C137.56 315.03 139.42 289 139.42 289C139.42 289 141.12 281.33 143.68 279.62" fill="#FDB43E"/>
<path opacity="0.3" d="M195.87 341.55C196.54 336.86 194.87 327.47 191.51 323.79C191.38 323.64 191.22 323.5 191.08 323.36C191.482 326.372 191.722 329.403 191.8 332.44C192.47 352.11 164.98 348.82 159.44 334.57C156.44 326.9 155.6 293.25 146.66 290.7C141.5 289.23 139.74 293.27 139.18 296.96C139 306.61 139.32 321.48 142.25 332.16C146.94 349.26 156.66 355.62 170.07 355.29C183.48 354.96 195.2 346.24 195.87 341.55Z" fill="black"/>
<path d="M153.31 273.85C160.68 271.17 170.07 272.85 173.42 282.23C176.77 291.61 179.78 319.09 179.78 319.09C179.78 319.09 188.16 320.09 191.51 323.79C194.86 327.49 196.51 336.86 195.87 341.55C195.23 346.24 183.47 354.95 170.07 355.29C156.67 355.63 146.94 349.29 142.25 332.16C137.56 315.03 139.42 289 139.42 289C139.42 289 141.12 281.33 143.68 279.62" stroke="#263238" stroke-width="1.193" stroke-linecap="round" stroke-linejoin="round"/>
<path d="M179.78 319.09C179.78 319.09 182.4 331.3 168.94 338" stroke="#263238" stroke-width="1.193" stroke-linecap="round" stroke-linejoin="round"/>
<path d="M149 100.85C149 98.0703 150.28 96.0203 153.17 96.0203C156.06 96.0203 157.4 98.0203 157.4 100.85V110.6C157.4 113.38 156.11 115.43 153.17 115.43C150.23 115.43 149 113.43 149 110.6V100.85ZM150.25 110.69C150.25 112.77 151.07 114.29 153.17 114.29C155.27 114.29 156.17 112.77 156.17 110.69V100.77C156.17 98.7003 155.33 97.1703 153.17 97.1703C151.01 97.1703 150.25 98.7003 150.25 100.77V110.69Z" fill="#263238"/>
<path d="M159.39 100.85C159.39 98.0703 160.67 96.0203 163.56 96.0203C166.45 96.0203 167.79 98.0203 167.79 100.85V110.6C167.79 113.38 166.51 115.43 163.56 115.43C160.61 115.43 159.39 113.43 159.39 110.6V100.85ZM160.64 110.69C160.64 112.77 161.46 114.29 163.56 114.29C165.66 114.29 166.56 112.77 166.56 110.69V100.77C166.56 98.7003 165.72 97.1703 163.56 97.1703C161.4 97.1703 160.64 98.7003 160.64 100.77V110.69Z" fill="#263238"/>
<path d="M173.82 96.1903C176.76 96.1903 177.91 98.0403 177.91 100.82V102.9C177.91 105.9 176.51 107.42 173.49 107.42H171.12V115.28H169.9V96.1903H173.82ZM173.49 106.28C175.7 106.28 176.65 105.28 176.65 102.98V100.74C176.65 98.6703 175.94 97.3303 173.82 97.3303H171.12V106.33L173.49 106.28Z" fill="#263238"/>
<path d="M187.83 100.8V101.2H186.63V100.71C186.63 98.7103 185.87 97.1703 183.8 97.1703C181.73 97.1703 180.96 98.6703 180.96 100.69C180.96 105.32 187.86 105.4 187.86 110.69C187.86 113.44 186.66 115.46 183.74 115.46C180.82 115.46 179.63 113.46 179.63 110.69V109.69H180.83V110.75C180.83 112.75 181.62 114.27 183.72 114.27C185.82 114.27 186.61 112.79 186.61 110.75C186.61 106.17 179.71 106.09 179.71 100.75C179.71 97.8903 180.96 96.0303 183.77 96.0003C186.58 95.9703 187.83 98.0403 187.83 100.8Z" fill="#263238"/>
<path d="M190.97 112.88V115.28H189.75V112.88H190.97Z" fill="#263238"/>
<path d="M194.38 112.88V115.28H193.16V112.88H194.38Z" fill="#263238"/>
<path d="M197.79 112.88V115.28H196.56V112.88H197.79Z" fill="#263238"/>
<path d="M302 325.13L315.61 293H323.76V325.13H327.29V331.92H323.76V340.55H316.42V331.92H302V325.13ZM316.4 325.13V307.27L308.86 325.13H316.4Z" fill="#263238"/>
<path d="M330.08 304.41C330.08 296.81 334.08 292.41 341.42 292.41C348.76 292.41 352.76 296.76 352.76 304.41V329.13C352.76 336.74 348.76 341.13 341.42 341.13C334.08 341.13 330.08 336.78 330.08 329.13V304.41ZM337.55 329.61C337.55 333.01 339.04 334.3 341.42 334.3C343.8 334.3 345.29 333.01 345.29 329.61V303.94C345.29 300.54 343.79 299.25 341.42 299.25C339.05 299.25 337.55 300.54 337.55 303.94V329.61Z" fill="#263238"/>
<path d="M355.82 325.13L369.4 293H377.55V325.13H381.08V331.92H377.55V340.55H370.21V331.92H355.82V325.13ZM370.21 325.13V307.27L362.68 325.13H370.21Z" fill="#263238"/>
<path d="M150.896 132.839L150.956 133.709H151.04L151.208 132.759L152.096 129.105H152.888L153.716 132.732L153.932 133.723H153.992L154.064 132.812L154.952 126.161H155.84L154.544 135.529H153.548L152.576 131.728L152.456 130.818H152.42L152.288 131.742L151.316 135.529H150.308L149 126.161H149.948L150.896 132.839Z" fill="#242424"/>
<path d="M156.591 130.845C156.591 129.292 156.835 128.097 157.323 127.258C157.819 126.419 158.579 126 159.603 126C160.163 126 160.635 126.116 161.019 126.348C161.411 126.58 161.727 126.91 161.967 127.338C162.207 127.758 162.379 128.266 162.483 128.864C162.587 129.453 162.639 130.113 162.639 130.845C162.639 132.398 162.391 133.593 161.895 134.432C161.407 135.271 160.643 135.69 159.603 135.69C159.051 135.69 158.583 135.574 158.199 135.342C157.815 135.11 157.503 134.784 157.263 134.365C157.023 133.937 156.851 133.428 156.747 132.839C156.643 132.241 156.591 131.577 156.591 130.845ZM157.647 130.845C157.647 131.363 157.675 131.853 157.731 132.317C157.795 132.781 157.903 133.192 158.055 133.549C158.207 133.897 158.407 134.178 158.655 134.392C158.903 134.597 159.219 134.7 159.603 134.7C160.291 134.7 160.791 134.387 161.103 133.763C161.423 133.138 161.583 132.166 161.583 130.845C161.583 130.336 161.551 129.85 161.487 129.386C161.431 128.913 161.327 128.503 161.175 128.155C161.023 127.798 160.819 127.517 160.563 127.312C160.307 127.097 159.987 126.99 159.603 126.99C158.923 126.99 158.427 127.307 158.115 127.941C157.803 128.565 157.647 129.533 157.647 130.845Z" fill="#242424"/>
<path d="M164.411 126.254C164.715 126.192 165.063 126.143 165.455 126.107C165.855 126.071 166.219 126.054 166.547 126.054C166.915 126.054 167.263 126.098 167.591 126.187C167.927 126.277 168.219 126.424 168.467 126.629C168.723 126.834 168.927 127.102 169.079 127.432C169.231 127.762 169.307 128.164 169.307 128.637C169.307 129.002 169.251 129.328 169.139 129.614C169.035 129.89 168.903 130.131 168.743 130.336C168.591 130.533 168.431 130.693 168.263 130.818C168.095 130.943 167.951 131.032 167.831 131.086L170.051 135.529H168.887L166.907 131.407H165.407V135.529H164.411V126.254ZM166.571 127.017C166.467 127.017 166.359 127.017 166.247 127.017C166.135 127.017 166.027 127.022 165.923 127.031C165.819 127.039 165.719 127.048 165.623 127.057C165.535 127.066 165.463 127.08 165.407 127.097V130.551H166.343C166.895 130.551 167.351 130.399 167.711 130.095C168.071 129.792 168.251 129.319 168.251 128.677C168.251 128.195 168.103 127.798 167.807 127.486C167.511 127.173 167.099 127.017 166.571 127.017Z" fill="#242424"/>
<path d="M171.366 126.161C171.67 126.116 171.986 126.089 172.314 126.08C172.65 126.062 172.934 126.054 173.166 126.054C173.894 126.054 174.502 126.17 174.99 126.402C175.486 126.634 175.882 126.959 176.178 127.379C176.482 127.789 176.698 128.284 176.826 128.864C176.962 129.444 177.03 130.082 177.03 130.778C177.03 131.412 176.97 132.023 176.85 132.612C176.73 133.192 176.522 133.709 176.226 134.164C175.93 134.61 175.53 134.972 175.026 135.248C174.53 135.516 173.906 135.65 173.154 135.65C173.05 135.65 172.914 135.645 172.746 135.636C172.578 135.636 172.406 135.628 172.23 135.61C172.054 135.601 171.886 135.592 171.726 135.583C171.566 135.574 171.446 135.561 171.366 135.543V126.161ZM173.214 127.044C173.102 127.044 172.958 127.048 172.782 127.057C172.614 127.066 172.474 127.084 172.362 127.111V134.606C172.402 134.615 172.458 134.624 172.53 134.633C172.61 134.633 172.69 134.637 172.77 134.646C172.85 134.646 172.926 134.651 172.998 134.659C173.078 134.659 173.142 134.659 173.19 134.659C173.774 134.659 174.246 134.552 174.606 134.338C174.974 134.124 175.258 133.839 175.458 133.482C175.658 133.116 175.794 132.701 175.866 132.237C175.938 131.764 175.974 131.278 175.974 130.778C175.974 130.341 175.942 129.904 175.878 129.466C175.814 129.02 175.682 128.619 175.482 128.262C175.29 127.905 175.01 127.615 174.642 127.392C174.282 127.16 173.806 127.044 173.214 127.044Z" fill="#242424"/>
<path d="M187.149 129.667L186.501 128.315H186.453L186.573 129.667V135.529H185.637V126.161H186.285L189.669 131.996L190.293 133.281H190.353L190.221 131.996V126.161H191.157V135.529H190.509L187.149 129.667Z" fill="#242424"/>
<path d="M192.568 130.845C192.568 129.292 192.812 128.097 193.3 127.258C193.796 126.419 194.556 126 195.58 126C196.14 126 196.612 126.116 196.996 126.348C197.388 126.58 197.704 126.91 197.944 127.338C198.184 127.758 198.356 128.266 198.46 128.864C198.564 129.453 198.616 130.113 198.616 130.845C198.616 132.398 198.368 133.593 197.872 134.432C197.384 135.271 196.62 135.69 195.58 135.69C195.028 135.69 194.56 135.574 194.176 135.342C193.792 135.11 193.48 134.784 193.24 134.365C193 133.937 192.828 133.428 192.724 132.839C192.62 132.241 192.568 131.577 192.568 130.845ZM193.624 130.845C193.624 131.363 193.652 131.853 193.708 132.317C193.772 132.781 193.88 133.192 194.032 133.549C194.184 133.897 194.384 134.178 194.632 134.392C194.88 134.597 195.196 134.7 195.58 134.7C196.268 134.7 196.768 134.387 197.08 133.763C197.4 133.138 197.56 132.166 197.56 130.845C197.56 130.336 197.528 129.85 197.464 129.386C197.408 128.913 197.304 128.503 197.152 128.155C197 127.798 196.796 127.517 196.54 127.312C196.284 127.097 195.964 126.99 195.58 126.99C194.9 126.99 194.404 127.307 194.092 127.941C193.78 128.565 193.624 129.533 193.624 130.845Z" fill="#242424"/>
<path d="M199.667 126.161H205.907V128.61H205.019V127.151H203.279V134.539H204.599V135.529H200.963V134.539H202.283V127.151H200.555V128.61H199.667V126.161Z" fill="#242424"/>
<path d="M214.982 126.161H219.794V127.151H215.978V130.35H219.554V131.34H215.978V135.529H214.982V126.161Z" fill="#242424"/>
<path d="M221.349 130.845C221.349 129.292 221.593 128.097 222.081 127.258C222.577 126.419 223.337 126 224.361 126C224.921 126 225.393 126.116 225.777 126.348C226.169 126.58 226.485 126.91 226.725 127.338C226.965 127.758 227.137 128.266 227.241 128.864C227.345 129.453 227.397 130.113 227.397 130.845C227.397 132.398 227.149 133.593 226.653 134.432C226.165 135.271 225.401 135.69 224.361 135.69C223.809 135.69 223.341 135.574 222.957 135.342C222.573 135.11 222.261 134.784 222.021 134.365C221.781 133.937 221.609 133.428 221.505 132.839C221.401 132.241 221.349 131.577 221.349 130.845ZM222.405 130.845C222.405 131.363 222.433 131.853 222.489 132.317C222.553 132.781 222.661 133.192 222.813 133.549C222.965 133.897 223.165 134.178 223.413 134.392C223.661 134.597 223.977 134.7 224.361 134.7C225.049 134.7 225.549 134.387 225.861 133.763C226.181 133.138 226.341 132.166 226.341 130.845C226.341 130.336 226.309 129.85 226.245 129.386C226.189 128.913 226.085 128.503 225.933 128.155C225.781 127.798 225.577 127.517 225.321 127.312C225.065 127.097 224.745 126.99 224.361 126.99C223.681 126.99 223.185 127.307 222.873 127.941C222.561 128.565 222.405 129.533 222.405 130.845Z" fill="#242424"/>
<path d="M233.488 126.161H234.448V132.411C234.448 132.973 234.38 133.459 234.244 133.87C234.116 134.28 233.932 134.619 233.692 134.887C233.452 135.146 233.16 135.338 232.816 135.462C232.472 135.587 232.092 135.65 231.676 135.65C230.684 135.65 229.936 135.4 229.432 134.9C228.936 134.401 228.688 133.642 228.688 132.625V126.161H229.684V132.103C229.684 132.576 229.724 132.978 229.804 133.308C229.892 133.629 230.016 133.892 230.176 134.097C230.344 134.294 230.552 134.436 230.8 134.526C231.056 134.615 231.352 134.659 231.688 134.659C232.336 134.659 232.796 134.463 233.068 134.071C233.348 133.669 233.488 133.013 233.488 132.103V126.161Z" fill="#242424"/>
<path d="M237.516 129.667L236.868 128.315H236.82L236.94 129.667V135.529H236.004V126.161H236.652L240.036 131.996L240.66 133.281H240.72L240.588 131.996V126.161H241.524V135.529H240.876L237.516 129.667Z" fill="#242424"/>
<path d="M243.319 126.161C243.623 126.116 243.939 126.089 244.267 126.08C244.603 126.062 244.887 126.054 245.119 126.054C245.847 126.054 246.455 126.17 246.943 126.402C247.439 126.634 247.835 126.959 248.131 127.379C248.435 127.789 248.651 128.284 248.779 128.864C248.915 129.444 248.983 130.082 248.983 130.778C248.983 131.412 248.923 132.023 248.803 132.612C248.683 133.192 248.475 133.709 248.179 134.164C247.883 134.61 247.483 134.972 246.979 135.248C246.483 135.516 245.859 135.65 245.107 135.65C245.003 135.65 244.867 135.645 244.699 135.636C244.531 135.636 244.359 135.628 244.183 135.61C244.007 135.601 243.839 135.592 243.679 135.583C243.519 135.574 243.399 135.561 243.319 135.543V126.161ZM245.167 127.044C245.055 127.044 244.911 127.048 244.735 127.057C244.567 127.066 244.427 127.084 244.315 127.111V134.606C244.355 134.615 244.411 134.624 244.483 134.633C244.563 134.633 244.643 134.637 244.723 134.646C244.803 134.646 244.879 134.651 244.951 134.659C245.031 134.659 245.095 134.659 245.143 134.659C245.727 134.659 246.199 134.552 246.559 134.338C246.927 134.124 247.211 133.839 247.411 133.482C247.611 133.116 247.747 132.701 247.819 132.237C247.891 131.764 247.927 131.278 247.927 130.778C247.927 130.341 247.895 129.904 247.831 129.466C247.767 129.02 247.635 128.619 247.435 128.262C247.243 127.905 246.963 127.615 246.595 127.392C246.235 127.16 245.759 127.044 245.167 127.044Z" fill="#242424"/>
</g>
</svg>
